<mxfile host="app.diagrams.net" modified="2024-09-11T08:18:51.745Z" agent="Mozilla/5.0 (Windows NT 10.0; Win64; x64) AppleWebKit/537.36 (KHTML, like Gecko) Chrome/128.0.0.0 Safari/537.36" etag="s6Aq-Mbq_v9DP6VbAFIZ" version="24.6.4" type="device">
  <diagram name="Page-1" id="vSpIAF3r10Jnih1GFcBD">
    <mxGraphModel dx="1050" dy="1699" grid="1" gridSize="10" guides="1" tooltips="1" connect="1" arrows="1" fold="1" page="1" pageScale="1" pageWidth="827" pageHeight="1169" math="0" shadow="0">
      <root>
        <mxCell id="0" />
        <mxCell id="1" parent="0" />
        <mxCell id="7-2eOVOcw84BGVAF4GQ1-15" style="edgeStyle=orthogonalEdgeStyle;rounded=0;orthogonalLoop=1;jettySize=auto;html=1;exitX=0.5;exitY=1;exitDx=0;exitDy=0;" edge="1" parent="1" source="7-2eOVOcw84BGVAF4GQ1-1" target="7-2eOVOcw84BGVAF4GQ1-12">
          <mxGeometry relative="1" as="geometry" />
        </mxCell>
        <mxCell id="7-2eOVOcw84BGVAF4GQ1-1" value="Remove BAMM" style="rounded=0;whiteSpace=wrap;html=1;fontSize=14;" vertex="1" parent="1">
          <mxGeometry x="610" y="150" width="120" height="50" as="geometry" />
        </mxCell>
        <mxCell id="7-2eOVOcw84BGVAF4GQ1-16" style="edgeStyle=orthogonalEdgeStyle;rounded=0;orthogonalLoop=1;jettySize=auto;html=1;exitX=0.5;exitY=1;exitDx=0;exitDy=0;entryX=0.5;entryY=0;entryDx=0;entryDy=0;" edge="1" parent="1" source="7-2eOVOcw84BGVAF4GQ1-2" target="7-2eOVOcw84BGVAF4GQ1-12">
          <mxGeometry relative="1" as="geometry" />
        </mxCell>
        <mxCell id="7-2eOVOcw84BGVAF4GQ1-2" value="Manual Migration&lt;br&gt;(if possible)" style="rounded=0;whiteSpace=wrap;html=1;fontSize=14;" vertex="1" parent="1">
          <mxGeometry x="430" y="150" width="120" height="50" as="geometry" />
        </mxCell>
        <mxCell id="7-2eOVOcw84BGVAF4GQ1-7" value="" style="edgeStyle=orthogonalEdgeStyle;rounded=0;orthogonalLoop=1;jettySize=auto;html=1;" edge="1" parent="1" source="7-2eOVOcw84BGVAF4GQ1-4" target="7-2eOVOcw84BGVAF4GQ1-6">
          <mxGeometry relative="1" as="geometry" />
        </mxCell>
        <mxCell id="7-2eOVOcw84BGVAF4GQ1-4" value="Old BAMM model" style="rounded=0;whiteSpace=wrap;html=1;fontSize=14;" vertex="1" parent="1">
          <mxGeometry x="520" y="-30" width="120" height="50" as="geometry" />
        </mxCell>
        <mxCell id="7-2eOVOcw84BGVAF4GQ1-8" style="edgeStyle=orthogonalEdgeStyle;rounded=0;orthogonalLoop=1;jettySize=auto;html=1;exitX=0;exitY=0.5;exitDx=0;exitDy=0;" edge="1" parent="1" source="7-2eOVOcw84BGVAF4GQ1-6" target="7-2eOVOcw84BGVAF4GQ1-2">
          <mxGeometry relative="1" as="geometry" />
        </mxCell>
        <mxCell id="7-2eOVOcw84BGVAF4GQ1-10" value="No" style="edgeLabel;html=1;align=center;verticalAlign=middle;resizable=0;points=[];fontSize=13;" vertex="1" connectable="0" parent="7-2eOVOcw84BGVAF4GQ1-8">
          <mxGeometry x="-0.6225" y="2" relative="1" as="geometry">
            <mxPoint as="offset" />
          </mxGeometry>
        </mxCell>
        <mxCell id="7-2eOVOcw84BGVAF4GQ1-9" style="edgeStyle=orthogonalEdgeStyle;rounded=0;orthogonalLoop=1;jettySize=auto;html=1;exitX=1;exitY=0.5;exitDx=0;exitDy=0;" edge="1" parent="1" source="7-2eOVOcw84BGVAF4GQ1-6" target="7-2eOVOcw84BGVAF4GQ1-1">
          <mxGeometry relative="1" as="geometry" />
        </mxCell>
        <mxCell id="7-2eOVOcw84BGVAF4GQ1-11" value="Yes" style="edgeLabel;html=1;align=center;verticalAlign=middle;resizable=0;points=[];fontSize=13;" vertex="1" connectable="0" parent="7-2eOVOcw84BGVAF4GQ1-9">
          <mxGeometry x="-0.6293" y="-1" relative="1" as="geometry">
            <mxPoint as="offset" />
          </mxGeometry>
        </mxCell>
        <mxCell id="7-2eOVOcw84BGVAF4GQ1-6" value="New SAMM &lt;br&gt;model available?" style="rhombus;whiteSpace=wrap;html=1;rounded=0;fontSize=13;" vertex="1" parent="1">
          <mxGeometry x="510" y="50" width="140" height="90" as="geometry" />
        </mxCell>
        <mxCell id="7-2eOVOcw84BGVAF4GQ1-12" value="Migrate to latest SAMM prefix" style="rounded=0;whiteSpace=wrap;html=1;fontSize=14;" vertex="1" parent="1">
          <mxGeometry x="520" y="240" width="120" height="50" as="geometry" />
        </mxCell>
        <mxCell id="7-2eOVOcw84BGVAF4GQ1-23" style="edgeStyle=orthogonalEdgeStyle;rounded=0;orthogonalLoop=1;jettySize=auto;html=1;entryX=0.5;entryY=0;entryDx=0;entryDy=0;exitX=0.5;exitY=1;exitDx=0;exitDy=0;" edge="1" parent="1" source="7-2eOVOcw84BGVAF4GQ1-17" target="7-2eOVOcw84BGVAF4GQ1-4">
          <mxGeometry relative="1" as="geometry">
            <Array as="points">
              <mxPoint x="310" y="290" />
              <mxPoint x="400" y="290" />
              <mxPoint x="400" y="-50" />
              <mxPoint x="580" y="-50" />
            </Array>
          </mxGeometry>
        </mxCell>
        <mxCell id="7-2eOVOcw84BGVAF4GQ1-17" value="Fix folder structure for Folder-based model resolution" style="rounded=0;whiteSpace=wrap;html=1;fontSize=14;" vertex="1" parent="1">
          <mxGeometry x="250" y="220" width="120" height="50" as="geometry" />
        </mxCell>
        <mxCell id="7-2eOVOcw84BGVAF4GQ1-21" style="edgeStyle=orthogonalEdgeStyle;rounded=0;orthogonalLoop=1;jettySize=auto;html=1;entryX=0.5;entryY=0;entryDx=0;entryDy=0;" edge="1" parent="1" source="7-2eOVOcw84BGVAF4GQ1-18" target="7-2eOVOcw84BGVAF4GQ1-19">
          <mxGeometry relative="1" as="geometry" />
        </mxCell>
        <mxCell id="7-2eOVOcw84BGVAF4GQ1-18" value="Remove license comments" style="rounded=0;whiteSpace=wrap;html=1;fontSize=14;" vertex="1" parent="1">
          <mxGeometry x="250" y="-50" width="120" height="50" as="geometry" />
        </mxCell>
        <mxCell id="7-2eOVOcw84BGVAF4GQ1-22" style="edgeStyle=orthogonalEdgeStyle;rounded=0;orthogonalLoop=1;jettySize=auto;html=1;" edge="1" parent="1" source="7-2eOVOcw84BGVAF4GQ1-19" target="7-2eOVOcw84BGVAF4GQ1-20">
          <mxGeometry relative="1" as="geometry" />
        </mxCell>
        <mxCell id="7-2eOVOcw84BGVAF4GQ1-19" value="Remove samm:operations and samm:events" style="rounded=0;whiteSpace=wrap;html=1;fontSize=14;" vertex="1" parent="1">
          <mxGeometry x="250" y="40" width="120" height="50" as="geometry" />
        </mxCell>
        <mxCell id="7-2eOVOcw84BGVAF4GQ1-24" style="edgeStyle=orthogonalEdgeStyle;rounded=0;orthogonalLoop=1;jettySize=auto;html=1;" edge="1" parent="1" source="7-2eOVOcw84BGVAF4GQ1-20" target="7-2eOVOcw84BGVAF4GQ1-17">
          <mxGeometry relative="1" as="geometry" />
        </mxCell>
        <mxCell id="7-2eOVOcw84BGVAF4GQ1-20" value="Remove models with empty&amp;nbsp;JSON Payload" style="rounded=0;whiteSpace=wrap;html=1;fontSize=14;" vertex="1" parent="1">
          <mxGeometry x="250" y="130" width="120" height="50" as="geometry" />
        </mxCell>
      </root>
    </mxGraphModel>
  </diagram>
</mxfile>
